<?xml version="1.0" encoding="utf-8"?>
<!-- Generator: Adobe Illustrator 19.2.1, SVG Export Plug-In . SVG Version: 6.00 Build 0)  -->
<svg version="1.1" id="Calque_1" xmlns="http://www.w3.org/2000/svg" xmlns:xlink="http://www.w3.org/1999/xlink" x="0px" y="0px"
	 viewBox="0 0 65.2 65.2" style="enable-background:new 0 0 65.2 65.2;" xml:space="preserve">
<style type="text/css">
	.st0{fill:#171C34;}
	.st1{fill:none;stroke:#FFFFFF;stroke-width:1.62;stroke-linecap:round;stroke-miterlimit:10;}
	.st2{fill:#FFFFFF;}
	.st3{fill:none;stroke:#FFFFFF;stroke-width:1.6459;stroke-linecap:round;stroke-miterlimit:10;}
	.st4{fill:none;stroke:#BE1622;stroke-width:1.62;stroke-linecap:round;stroke-miterlimit:10;}
	.st5{fill:#BE1622;}
	.st6{fill:none;stroke:#BE1622;stroke-width:1.6459;stroke-miterlimit:10;}
</style>
<path class="st0" d="M47.1,64.3h-29c-9.5,0-17.2-7.7-17.2-17.2v-29c0-9.5,7.7-17.2,17.2-17.2h29c9.5,0,17.2,7.7,17.2,17.2v29
	C64.3,56.6,56.6,64.3,47.1,64.3z"/>
<g>
	<g>
		<path class="st1" d="M42.4,42.6c-2.5,2.5-6,4-9.8,4c-7.7,0-14-6.3-14-14c0-7.7,6.3-14,14-14c7.7,0,14,6.3,14,14"/>
		<g>
			<polygon class="st2" points="43.3,31.6 46.6,37.4 49.9,31.6 			"/>
		</g>
	</g>
</g>
<path class="st2" d="M37.1,38.8h-9.1c-0.7,0-1.2-0.6-1.2-1.2v-5.1c0-0.7,0.6-1.2,1.2-1.2h9.1c0.7,0,1.2,0.6,1.2,1.2v5.1
	C38.4,38.3,37.8,38.8,37.1,38.8z"/>
<path class="st3" d="M35.9,33.6c0,1.8-1.5,3.3-3.3,3.3h0c-1.8,0-3.3-1.5-3.3-3.3V28c0-1.8,1.5-3.3,3.3-3.3h0c1.8,0,3.3,1.5,3.3,3.3
	v1.4"/>
</svg>
