# Blender v2.78 (sub 0) OBJ File: 'Plane_Propre_8.blend'
# www.blender.org
mtllib Roues.mtl
o Roues_Cube.009
v -4.116776 -0.572902 -0.035664
v -4.116776 -0.572902 0.035664
v -4.102476 -0.672272 -0.035664
v -4.102476 -0.672272 0.035664
v -4.127292 -0.769551 -0.035664
v -4.127292 -0.769551 0.035664
v -4.187446 -0.849927 -0.035664
v -4.187446 -0.849927 0.035664
v -4.273779 -0.901167 -0.035664
v -4.273779 -0.901167 0.035664
v -4.373150 -0.915467 -0.035664
v -4.373150 -0.915467 0.035664
v -4.470428 -0.890651 -0.035664
v -4.470428 -0.890651 0.035664
v -4.550806 -0.830497 -0.035664
v -4.550806 -0.830497 0.035664
v -4.602044 -0.744164 -0.035664
v -4.602044 -0.744164 0.035664
v -4.616344 -0.644794 -0.035664
v -4.616344 -0.644794 0.035664
v -4.591529 -0.547515 -0.035664
v -4.591529 -0.547515 0.035664
v -4.531375 -0.467138 -0.035664
v -4.531375 -0.467138 0.035664
v -4.445041 -0.415899 -0.035664
v -4.445041 -0.415899 0.035664
v -4.345671 -0.401598 -0.035664
v -4.345671 -0.401598 0.035664
v -4.248392 -0.426414 -0.035664
v -4.248392 -0.426414 0.035664
v -4.168015 -0.486568 -0.035664
v -4.168015 -0.486568 0.035664
v 0.570337 -2.450576 -2.029562
v 0.570337 -2.450576 -1.869883
v 0.751644 -2.414512 -1.869883
v 0.751645 -2.414512 -2.029562
v 0.905349 -2.311810 -1.869883
v 0.905349 -2.311810 -2.029562
v 1.008052 -2.158105 -1.869883
v 1.008052 -2.158105 -2.029562
v 1.044116 -1.976797 -1.869883
v 1.044116 -1.976797 -2.029562
v 1.008052 -1.795490 -1.869883
v 1.008052 -1.795490 -2.029562
v 0.905350 -1.641785 -1.869883
v 0.905350 -1.641785 -2.029561
v 0.751645 -1.539082 -1.869883
v 0.751645 -1.539082 -2.029562
v 0.570337 -1.503018 -1.869883
v 0.570337 -1.503018 -2.029561
v 0.389030 -1.539082 -1.869883
v 0.389030 -1.539082 -2.029562
v 0.235325 -1.641784 -1.869883
v 0.235325 -1.641784 -2.029562
v 0.132622 -1.795490 -1.869883
v 0.132622 -1.795490 -2.029562
v 0.096558 -1.976797 -1.869883
v 0.096558 -1.976797 -2.029562
v 0.132622 -2.158104 -1.869883
v 0.132622 -2.158104 -2.029562
v 0.235325 -2.311810 -1.869883
v 0.235325 -2.311810 -2.029562
v 0.389030 -2.414512 -1.869883
v 0.389030 -2.414512 -2.029562
v 0.570337 -2.450576 2.029562
v 0.570337 -2.450576 1.869883
v 0.751644 -2.414512 1.869883
v 0.751645 -2.414512 2.029562
v 0.905349 -2.311810 1.869883
v 0.905349 -2.311810 2.029562
v 1.008052 -2.158105 1.869883
v 1.008052 -2.158105 2.029562
v 1.044116 -1.976797 1.869883
v 1.044116 -1.976797 2.029562
v 1.008052 -1.795490 1.869883
v 1.008052 -1.795490 2.029562
v 0.905350 -1.641785 1.869883
v 0.905350 -1.641785 2.029561
v 0.751645 -1.539082 1.869883
v 0.751645 -1.539082 2.029562
v 0.570337 -1.503018 1.869883
v 0.570337 -1.503018 2.029561
v 0.389030 -1.539082 1.869883
v 0.389030 -1.539082 2.029562
v 0.235325 -1.641784 1.869883
v 0.235325 -1.641784 2.029562
v 0.132622 -1.795490 1.869883
v 0.132622 -1.795490 2.029562
v 0.096558 -1.976797 1.869883
v 0.096558 -1.976797 2.029562
v 0.132622 -2.158104 1.869883
v 0.132622 -2.158104 2.029562
v 0.235325 -2.311810 1.869883
v 0.235325 -2.311810 2.029562
v 0.389030 -2.414512 1.869883
v 0.389030 -2.414512 2.029562
v -4.359410 -0.658533 0.035664
v -4.359410 -0.658533 -0.035664
v 0.570337 -1.976797 -2.029562
v 0.570337 -1.976797 -1.869883
v 0.570337 -1.976797 2.029562
v 0.570337 -1.976797 1.869884
vn 0.7037 0.2483 -0.6657
vn 0.7037 0.2483 0.6657
vn 0.7451 -0.0398 0.6657
vn 0.7451 -0.0398 -0.6657
vn 0.6731 -0.3219 0.6657
vn 0.6731 -0.3219 -0.6657
vn 0.4987 -0.5550 0.6657
vn 0.4987 -0.5550 -0.6657
vn 0.2483 -0.7037 0.6657
vn 0.2483 -0.7037 -0.6657
vn -0.0398 -0.7451 0.6657
vn -0.0398 -0.7451 -0.6657
vn -0.3219 -0.6731 0.6657
vn -0.3219 -0.6731 -0.6657
vn -0.5550 -0.4987 0.6657
vn -0.5550 -0.4987 -0.6657
vn -0.7037 -0.2483 0.6657
vn -0.7037 -0.2483 -0.6657
vn -0.7451 0.0398 0.6657
vn -0.7451 0.0398 -0.6657
vn -0.6731 0.3219 0.6657
vn -0.6731 0.3219 -0.6657
vn -0.4987 0.5550 0.6657
vn -0.4987 0.5550 -0.6657
vn -0.2483 0.7037 0.6657
vn -0.2483 0.7037 -0.6657
vn 0.0398 0.7451 0.6657
vn 0.0398 0.7451 -0.6657
vn 0.3219 0.6731 0.6657
vn 0.3219 0.6731 -0.6657
vn 0.0000 0.0000 -1.0000
vn 0.5550 0.4987 0.6657
vn 0.5550 0.4987 -0.6657
vn 0.0000 -0.7462 0.6657
vn 0.2855 -0.6894 0.6657
vn 0.0000 0.0000 1.0000
vn -0.6894 -0.2855 0.6657
vn -0.6894 -0.2855 -0.6657
vn -0.5276 -0.5276 -0.6657
vn -0.5276 -0.5276 0.6657
vn -0.7462 0.0000 0.6657
vn -0.7462 0.0000 -0.6657
vn -0.6894 0.2855 0.6657
vn -0.6894 0.2855 -0.6657
vn -0.5276 0.5276 0.6657
vn -0.5276 0.5276 -0.6657
vn -0.2855 0.6894 0.6657
vn -0.2855 0.6894 -0.6657
vn 0.0000 0.7462 0.6657
vn 0.0000 0.7462 -0.6657
vn 0.2855 0.6894 0.6657
vn 0.2855 0.6894 -0.6657
vn 0.5276 0.5276 0.6657
vn 0.5276 0.5276 -0.6657
vn 0.6894 0.2855 0.6657
vn 0.6894 0.2855 -0.6657
vn 0.7462 0.0000 0.6657
vn 0.7462 0.0000 -0.6657
vn 0.6894 -0.2855 0.6657
vn 0.6894 -0.2855 -0.6657
vn 0.5276 -0.5276 0.6657
vn 0.5276 -0.5276 -0.6657
vn -0.2855 -0.6894 0.6657
vn -0.2855 -0.6894 -0.6657
vn 0.0000 -0.7462 -0.6657
vn 0.2855 -0.6894 -0.6657
usemtl Roues
s 1
f 1//1 2//2 4//3 3//4
f 3//4 4//3 6//5 5//6
f 5//6 6//5 8//7 7//8
f 7//8 8//7 10//9 9//10
f 9//10 10//9 12//11 11//12
f 11//12 12//11 14//13 13//14
f 13//14 14//13 16//15 15//16
f 15//16 16//15 18//17 17//18
f 17//18 18//17 20//19 19//20
f 19//20 20//19 22//21 21//22
f 21//22 22//21 24//23 23//24
f 23//24 24//23 26//25 25//26
f 25//26 26//25 28//27 27//28
f 27//28 28//27 30//29 29//30
f 1//1 3//4 98//31
f 29//30 30//29 32//32 31//33
f 31//33 32//32 2//2 1//1
f 34//34 35//35 100//36
f 59//37 60//38 62//39 61//40
f 57//41 58//42 60//38 59//37
f 55//43 56//44 58//42 57//41
f 53//45 54//46 56//44 55//43
f 51//47 52//48 54//46 53//45
f 49//49 50//50 52//48 51//47
f 47//51 48//52 50//50 49//49
f 45//53 46//54 48//52 47//51
f 43//55 44//56 46//54 45//53
f 41//57 42//58 44//56 43//55
f 39//59 40//60 42//58 41//57
f 68//35 70//61 101//36
f 37//61 38//62 40//60 39//59
f 63//63 64//64 33//65 34//34
f 35//35 36//66 38//62 37//61
f 34//34 33//65 36//66 35//35
f 61//40 62//39 64//64 63//63
f 66//65 95//64 102//31
f 91//38 93//39 94//40 92//37
f 89//42 91//38 92//37 90//41
f 87//44 89//42 90//41 88//43
f 85//46 87//44 88//43 86//45
f 83//48 85//46 86//45 84//47
f 81//50 83//48 84//47 82//49
f 79//52 81//50 82//49 80//51
f 77//54 79//52 80//51 78//53
f 75//56 77//54 78//53 76//55
f 73//58 75//56 76//55 74//57
f 71//60 73//58 74//57 72//59
f 69//62 71//60 72//59 70//61
f 95//64 66//65 65//34 96//63
f 67//66 69//62 70//61 68//35
f 66//65 67//66 68//35 65//34
f 93//39 95//64 96//63 94//40
f 4//3 2//2 97//36
f 2//2 32//32 97//36
f 32//32 30//29 97//36
f 30//29 28//27 97//36
f 28//27 26//25 97//36
f 26//25 24//23 97//36
f 24//23 22//21 97//36
f 22//21 20//19 97//36
f 20//19 18//17 97//36
f 18//17 16//15 97//36
f 16//15 14//13 97//36
f 14//13 12//11 97//36
f 12//11 10//9 97//36
f 10//9 8//7 97//36
f 8//7 6//5 97//36
f 6//5 4//3 97//36
f 3//4 5//6 98//31
f 5//6 7//8 98//31
f 7//8 9//10 98//31
f 9//10 11//12 98//31
f 11//12 13//14 98//31
f 13//14 15//16 98//31
f 15//16 17//18 98//31
f 17//18 19//20 98//31
f 19//20 21//22 98//31
f 21//22 23//24 98//31
f 23//24 25//26 98//31
f 25//26 27//28 98//31
f 27//28 29//30 98//31
f 29//30 31//33 98//31
f 31//33 1//1 98//31
f 36//66 33//65 99//31
f 33//65 64//64 99//31
f 64//64 62//39 99//31
f 62//39 60//38 99//31
f 60//38 58//42 99//31
f 58//42 56//44 99//31
f 56//44 54//46 99//31
f 54//46 52//48 99//31
f 52//48 50//50 99//31
f 50//50 48//52 99//31
f 48//52 46//54 99//31
f 46//54 44//56 99//31
f 44//56 42//58 99//31
f 42//58 40//60 99//31
f 40//60 38//62 99//31
f 38//62 36//66 99//31
f 35//35 37//61 100//36
f 37//61 39//59 100//36
f 39//59 41//57 100//36
f 41//57 43//55 100//36
f 43//55 45//53 100//36
f 45//53 47//51 100//36
f 47//51 49//49 100//36
f 49//49 51//47 100//36
f 51//47 53//45 100//36
f 53//45 55//43 100//36
f 55//43 57//41 100//36
f 57//41 59//37 100//36
f 59//37 61//40 100//36
f 61//40 63//63 100//36
f 63//63 34//34 100//36
f 70//61 72//59 101//36
f 72//59 74//57 101//36
f 74//57 76//55 101//36
f 76//55 78//53 101//36
f 78//53 80//51 101//36
f 80//51 82//49 101//36
f 82//49 84//47 101//36
f 84//47 86//45 101//36
f 86//45 88//43 101//36
f 88//43 90//41 101//36
f 90//41 92//37 101//36
f 92//37 94//40 101//36
f 94//40 96//63 101//36
f 96//63 65//34 101//36
f 65//34 68//35 101//36
f 95//64 93//39 102//31
f 93//39 91//38 102//31
f 91//38 89//42 102//31
f 89//42 87//44 102//31
f 87//44 85//46 102//31
f 85//46 83//48 102//31
f 83//48 81//50 102//31
f 81//50 79//52 102//31
f 79//52 77//54 102//31
f 77//54 75//56 102//31
f 75//56 73//58 102//31
f 73//58 71//60 102//31
f 71//60 69//62 102//31
f 69//62 67//66 102//31
f 67//66 66//65 102//31
